<svg width="80" height="83" viewBox="0 0 80 83" fill="none" xmlns="http://www.w3.org/2000/svg">
    <rect y="3" width="80" height="80" rx="13" fill="#9CCAFF"/>
    <path d="M32.6 13.36C33.4267 13.7867 33.84 14.4667 33.84 15.4C33.84 15.96 33.64 16.5067 33.24 17.04C32.8133 17.6 32.2667 17.88 31.6 17.88C31.1467 17.88 30.6933 17.76 30.24 17.52C28.9333 16.9067 27.52 16.6 26 16.6C24.1333 16.6 22.5067 17 21.12 17.8C19.7333 18.5733 18.6667 19.68 17.92 21.12C17.1733 22.5333 16.8 24.16 16.8 26C16.8 29.1467 17.64 31.5333 19.32 33.16C21.0267 34.7867 23.2533 35.6 26 35.6C27.6267 35.6 29.04 35.2933 30.24 34.68C30.72 34.4667 31.1467 34.36 31.52 34.36C32.2133 34.36 32.8 34.6533 33.28 35.24C33.68 35.7467 33.88 36.2933 33.88 36.88C33.88 37.3067 33.7733 37.6933 33.56 38.04C33.3467 38.3867 33.04 38.6533 32.64 38.84C30.56 39.88 28.3467 40.4 26 40.4C23.3867 40.4 20.9867 39.8533 18.8 38.76C16.6133 37.64 14.8667 36 13.56 33.84C12.2533 31.68 11.6 29.0667 11.6 26C11.6 23.28 12.2133 20.84 13.44 18.68C14.6933 16.52 16.4133 14.84 18.6 13.64C20.7867 12.4133 23.2533 11.8 26 11.8C28.3733 11.8 30.5733 12.32 32.6 13.36Z" fill="white"/>
    <path d="M66.28 46C67.0267 46 67.6267 46.2267 68.08 46.68C68.5333 47.1333 68.76 47.72 68.76 48.44V71.56C68.76 72.2533 68.52 72.84 68.04 73.32C67.56 73.7733 66.9467 74 66.2 74C65.5333 74 64.96 73.7733 64.48 73.32C64 72.84 63.76 72.2533 63.76 71.56V62.24H51V71.56C51 72.2533 50.7467 72.84 50.24 73.32C49.7333 73.7733 49.1467 74 48.48 74C47.76 74 47.16 73.7733 46.68 73.32C46.2267 72.84 46 72.2533 46 71.56V48.44C46 47.7467 46.24 47.1733 46.72 46.72C47.2 46.24 47.8133 46 48.56 46C49.2267 46 49.8 46.24 50.28 46.72C50.76 47.1733 51 47.7467 51 48.44V57.64H63.76V48.44C63.76 47.7467 64.0133 47.1733 64.52 46.72C65.0267 46.24 65.6133 46 66.28 46Z" fill="white"/>
    <mask id="mask0" mask-type="alpha" maskUnits="userSpaceOnUse" x="0" y="3" width="80" height="80">
        <rect y="3" width="80" height="80" rx="13" fill="#9CCAFF"/>
        <path d="M31.6 13.36C32.4267 13.7867 32.84 14.4667 32.84 15.4C32.84 15.96 32.64 16.5067 32.24 17.04C31.8133 17.6 31.2667 17.88 30.6 17.88C30.1467 17.88 29.6933 17.76 29.24 17.52C27.9333 16.9067 26.52 16.6 25 16.6C23.1333 16.6 21.5067 17 20.12 17.8C18.7333 18.5733 17.6667 19.68 16.92 21.12C16.1733 22.5333 15.8 24.16 15.8 26C15.8 29.1467 16.64 31.5333 18.32 33.16C20.0267 34.7867 22.2533 35.6 25 35.6C26.6267 35.6 28.04 35.2933 29.24 34.68C29.72 34.4667 30.1467 34.36 30.52 34.36C31.2133 34.36 31.8 34.6533 32.28 35.24C32.68 35.7467 32.88 36.2933 32.88 36.88C32.88 37.3067 32.7733 37.6933 32.56 38.04C32.3467 38.3867 32.04 38.6533 31.64 38.84C29.56 39.88 27.3467 40.4 25 40.4C22.3867 40.4 19.9867 39.8533 17.8 38.76C15.6133 37.64 13.8667 36 12.56 33.84C11.2533 31.68 10.6 29.0667 10.6 26C10.6 23.28 11.2133 20.84 12.44 18.68C13.6933 16.52 15.4133 14.84 17.6 13.64C19.7867 12.4133 22.2533 11.8 25 11.8C27.3733 11.8 29.5733 12.32 31.6 13.36Z" fill="white"/>
        <path d="M63.28 44C64.0267 44 64.6267 44.2267 65.08 44.68C65.5333 45.1333 65.76 45.72 65.76 46.44V69.56C65.76 70.2533 65.52 70.84 65.04 71.32C64.56 71.7733 63.9467 72 63.2 72C62.5333 72 61.96 71.7733 61.48 71.32C61 70.84 60.76 70.2533 60.76 69.56V60.24H48V69.56C48 70.2533 47.7467 70.84 47.24 71.32C46.7333 71.7733 46.1467 72 45.48 72C44.76 72 44.16 71.7733 43.68 71.32C43.2267 70.84 43 70.2533 43 69.56V46.44C43 45.7467 43.24 45.1733 43.72 44.72C44.2 44.24 44.8133 44 45.56 44C46.2267 44 46.8 44.24 47.28 44.72C47.76 45.1733 48 45.7467 48 46.44V55.64H60.76V46.44C60.76 45.7467 61.0133 45.1733 61.52 44.72C62.0267 44.24 62.6133 44 63.28 44Z" fill="white"/>
    </mask>
    <g mask="url(#mask0)">
        <circle cx="5.5" cy="76.5" r="30.5" fill="#DAA3A3"/>
        <circle cx="76.5" cy="9.5" r="30.5" fill="#EFDA91"/>
    </g>
</svg>
