<svg width="476" height="109" viewBox="0 0 476 109" fill="none" xmlns="http://www.w3.org/2000/svg">
    <path d="M146.2 26.72C147.853 27.5733 148.68 28.9333 148.68 30.8C148.68 31.92 148.28 33.0133 147.48 34.08C146.627 35.2 145.533 35.76 144.2 35.76C143.293 35.76 142.387 35.52 141.48 35.04C138.867 33.8133 136.04 33.2 133 33.2C129.267 33.2 126.013 34 123.24 35.6C120.467 37.1467 118.333 39.36 116.84 42.24C115.347 45.0667 114.6 48.32 114.6 52C114.6 58.2933 116.28 63.0667 119.64 66.32C123.053 69.5733 127.507 71.2 133 71.2C136.253 71.2 139.08 70.5867 141.48 69.36C142.44 68.9333 143.293 68.72 144.04 68.72C145.427 68.72 146.6 69.3067 147.56 70.48C148.36 71.4933 148.76 72.5867 148.76 73.76C148.76 74.6133 148.547 75.3867 148.12 76.08C147.693 76.7733 147.08 77.3067 146.28 77.68C142.12 79.76 137.693 80.8 133 80.8C127.773 80.8 122.973 79.7067 118.6 77.52C114.227 75.28 110.733 72 108.12 67.68C105.507 63.36 104.2 58.1333 104.2 52C104.2 46.56 105.427 41.68 107.88 37.36C110.387 33.04 113.827 29.68 118.2 27.28C122.573 24.8267 127.507 23.6 133 23.6C137.747 23.6 142.147 24.64 146.2 26.72ZM166.756 75.12C166.756 76.5067 166.276 77.68 165.316 78.64C164.41 79.5467 163.263 80 161.876 80C160.543 80 159.423 79.5467 158.516 78.64C157.61 77.68 157.156 76.5067 157.156 75.12V25.68C157.156 24.2933 157.61 23.1467 158.516 22.24C159.476 21.28 160.65 20.8 162.036 20.8C163.37 20.8 164.49 21.28 165.396 22.24C166.303 23.1467 166.756 24.2933 166.756 25.68V75.12ZM209.288 37.2C210.675 37.2 211.821 37.68 212.728 38.64C213.635 39.5467 214.088 40.6933 214.088 42.08V62.4C214.088 68.16 212.488 72.6667 209.288 75.92C206.141 79.1733 201.635 80.8 195.768 80.8C189.901 80.8 185.395 79.1733 182.248 75.92C179.101 72.6667 177.528 68.16 177.528 62.4V42.08C177.528 40.6933 177.981 39.5467 178.888 38.64C179.795 37.68 180.941 37.2 182.328 37.2C183.715 37.2 184.861 37.68 185.768 38.64C186.675 39.5467 187.128 40.6933 187.128 42.08V62.4C187.128 65.6533 187.848 68.08 189.288 69.68C190.728 71.2267 192.888 72 195.768 72C198.701 72 200.888 71.2267 202.328 69.68C203.768 68.08 204.488 65.6533 204.488 62.4V42.08C204.488 40.6933 204.941 39.5467 205.848 38.64C206.755 37.68 207.901 37.2 209.288 37.2ZM246.641 36.4C250.321 36.4 253.655 37.36 256.641 39.28C259.628 41.1467 261.975 43.76 263.681 47.12C265.441 50.48 266.321 54.2933 266.321 58.56C266.321 62.8267 265.468 66.6667 263.761 70.08C262.055 73.44 259.708 76.08 256.721 78C253.788 79.8667 250.535 80.8 246.961 80.8C244.401 80.8 241.975 80.2933 239.681 79.28C237.441 78.2133 235.575 76.9333 234.081 75.44V75.92C234.081 77.3067 233.628 78.48 232.721 79.44C231.815 80.3467 230.668 80.8 229.281 80.8C227.895 80.8 226.748 80.3467 225.841 79.44C224.935 78.5333 224.481 77.36 224.481 75.92V25.68C224.481 24.2933 224.935 23.1467 225.841 22.24C226.748 21.28 227.895 20.8 229.281 20.8C230.668 20.8 231.815 21.28 232.721 22.24C233.628 23.1467 234.081 24.2933 234.081 25.68V42.4C235.361 40.8 237.148 39.4133 239.441 38.24C241.735 37.0133 244.135 36.4 246.641 36.4ZM245.441 72C248.855 72 251.655 70.72 253.841 68.16C256.028 65.6 257.121 62.4 257.121 58.56C257.121 54.72 256.028 51.5467 253.841 49.04C251.708 46.48 248.908 45.2 245.441 45.2C241.975 45.2 239.148 46.48 236.961 49.04C234.775 51.5467 233.681 54.72 233.681 58.56C233.681 62.4 234.775 65.6 236.961 68.16C239.148 70.72 241.975 72 245.441 72Z" fill="#9CCAFF"/>
    <path d="M315.685 24C317.178 24 318.378 24.4533 319.285 25.36C320.192 26.2667 320.645 27.44 320.645 28.88V75.12C320.645 76.5067 320.165 77.68 319.205 78.64C318.245 79.5467 317.018 80 315.525 80C314.192 80 313.045 79.5467 312.085 78.64C311.125 77.68 310.645 76.5067 310.645 75.12V56.48H285.125V75.12C285.125 76.5067 284.618 77.68 283.605 78.64C282.592 79.5467 281.418 80 280.085 80C278.645 80 277.445 79.5467 276.485 78.64C275.578 77.68 275.125 76.5067 275.125 75.12V28.88C275.125 27.4933 275.605 26.3467 276.565 25.44C277.525 24.48 278.752 24 280.245 24C281.578 24 282.725 24.48 283.685 25.44C284.645 26.3467 285.125 27.4933 285.125 28.88V47.28H310.645V28.88C310.645 27.4933 311.152 26.3467 312.165 25.44C313.178 24.48 314.352 24 315.685 24ZM363.585 37.2C364.972 37.2 366.118 37.68 367.025 38.64C367.932 39.5467 368.385 40.6933 368.385 42.08V62.4C368.385 68.16 366.785 72.6667 363.585 75.92C360.438 79.1733 355.932 80.8 350.065 80.8C344.198 80.8 339.692 79.1733 336.545 75.92C333.398 72.6667 331.825 68.16 331.825 62.4V42.08C331.825 40.6933 332.278 39.5467 333.185 38.64C334.092 37.68 335.238 37.2 336.625 37.2C338.012 37.2 339.158 37.68 340.065 38.64C340.972 39.5467 341.425 40.6933 341.425 42.08V62.4C341.425 65.6533 342.145 68.08 343.585 69.68C345.025 71.2267 347.185 72 350.065 72C352.998 72 355.185 71.2267 356.625 69.68C358.065 68.08 358.785 65.6533 358.785 62.4V42.08C358.785 40.6933 359.238 39.5467 360.145 38.64C361.052 37.68 362.198 37.2 363.585 37.2ZM400.938 36.4C404.618 36.4 407.951 37.36 410.938 39.28C413.925 41.1467 416.271 43.76 417.978 47.12C419.738 50.48 420.618 54.2933 420.618 58.56C420.618 62.8267 419.765 66.6667 418.058 70.08C416.351 73.44 414.005 76.08 411.018 78C408.085 79.8667 404.831 80.8 401.258 80.8C398.698 80.8 396.271 80.2933 393.978 79.28C391.738 78.2133 389.871 76.9333 388.378 75.44V75.92C388.378 77.3067 387.925 78.48 387.018 79.44C386.111 80.3467 384.965 80.8 383.578 80.8C382.191 80.8 381.045 80.3467 380.138 79.44C379.231 78.5333 378.778 77.36 378.778 75.92V25.68C378.778 24.2933 379.231 23.1467 380.138 22.24C381.045 21.28 382.191 20.8 383.578 20.8C384.965 20.8 386.111 21.28 387.018 22.24C387.925 23.1467 388.378 24.2933 388.378 25.68V42.4C389.658 40.8 391.445 39.4133 393.738 38.24C396.031 37.0133 398.431 36.4 400.938 36.4ZM399.738 72C403.151 72 405.951 70.72 408.138 68.16C410.325 65.6 411.418 62.4 411.418 58.56C411.418 54.72 410.325 51.5467 408.138 49.04C406.005 46.48 403.205 45.2 399.738 45.2C396.271 45.2 393.445 46.48 391.258 49.04C389.071 51.5467 387.978 54.72 387.978 58.56C387.978 62.4 389.071 65.6 391.258 68.16C393.445 70.72 396.271 72 399.738 72Z" fill="black"/>
    <rect y="9" width="80" height="80" rx="13" fill="#9CCAFF"/>
    <path d="M32.6 19.36C33.4267 19.7867 33.84 20.4667 33.84 21.4C33.84 21.96 33.64 22.5067 33.24 23.04C32.8133 23.6 32.2667 23.88 31.6 23.88C31.1467 23.88 30.6933 23.76 30.24 23.52C28.9333 22.9067 27.52 22.6 26 22.6C24.1333 22.6 22.5067 23 21.12 23.8C19.7333 24.5733 18.6667 25.68 17.92 27.12C17.1733 28.5333 16.8 30.16 16.8 32C16.8 35.1467 17.64 37.5333 19.32 39.16C21.0267 40.7867 23.2533 41.6 26 41.6C27.6267 41.6 29.04 41.2933 30.24 40.68C30.72 40.4667 31.1467 40.36 31.52 40.36C32.2133 40.36 32.8 40.6533 33.28 41.24C33.68 41.7467 33.88 42.2933 33.88 42.88C33.88 43.3067 33.7733 43.6933 33.56 44.04C33.3467 44.3867 33.04 44.6533 32.64 44.84C30.56 45.88 28.3467 46.4 26 46.4C23.3867 46.4 20.9867 45.8533 18.8 44.76C16.6133 43.64 14.8667 42 13.56 39.84C12.2533 37.68 11.6 35.0667 11.6 32C11.6 29.28 12.2133 26.84 13.44 24.68C14.6933 22.52 16.4133 20.84 18.6 19.64C20.7867 18.4133 23.2533 17.8 26 17.8C28.3733 17.8 30.5733 18.32 32.6 19.36Z" fill="white"/>
    <path d="M66.28 52C67.0267 52 67.6267 52.2267 68.08 52.68C68.5333 53.1333 68.76 53.72 68.76 54.44V77.56C68.76 78.2533 68.52 78.84 68.04 79.32C67.56 79.7733 66.9467 80 66.2 80C65.5333 80 64.96 79.7733 64.48 79.32C64 78.84 63.76 78.2533 63.76 77.56V68.24H51V77.56C51 78.2533 50.7467 78.84 50.24 79.32C49.7333 79.7733 49.1467 80 48.48 80C47.76 80 47.16 79.7733 46.68 79.32C46.2267 78.84 46 78.2533 46 77.56V54.44C46 53.7467 46.24 53.1733 46.72 52.72C47.2 52.24 47.8133 52 48.56 52C49.2267 52 49.8 52.24 50.28 52.72C50.76 53.1733 51 53.7467 51 54.44V63.64H63.76V54.44C63.76 53.7467 64.0133 53.1733 64.52 52.72C65.0267 52.24 65.6133 52 66.28 52Z" fill="white"/>
    <mask id="mask0" mask-type="alpha" maskUnits="userSpaceOnUse" x="0" y="9" width="80" height="80">
        <rect y="9" width="80" height="80" rx="13" fill="#9CCAFF"/>
        <path d="M31.6 19.36C32.4267 19.7867 32.84 20.4667 32.84 21.4C32.84 21.96 32.64 22.5067 32.24 23.04C31.8133 23.6 31.2667 23.88 30.6 23.88C30.1467 23.88 29.6933 23.76 29.24 23.52C27.9333 22.9067 26.52 22.6 25 22.6C23.1333 22.6 21.5067 23 20.12 23.8C18.7333 24.5733 17.6667 25.68 16.92 27.12C16.1733 28.5333 15.8 30.16 15.8 32C15.8 35.1467 16.64 37.5333 18.32 39.16C20.0267 40.7867 22.2533 41.6 25 41.6C26.6267 41.6 28.04 41.2933 29.24 40.68C29.72 40.4667 30.1467 40.36 30.52 40.36C31.2133 40.36 31.8 40.6533 32.28 41.24C32.68 41.7467 32.88 42.2933 32.88 42.88C32.88 43.3067 32.7733 43.6933 32.56 44.04C32.3467 44.3867 32.04 44.6533 31.64 44.84C29.56 45.88 27.3467 46.4 25 46.4C22.3867 46.4 19.9867 45.8533 17.8 44.76C15.6133 43.64 13.8667 42 12.56 39.84C11.2533 37.68 10.6 35.0667 10.6 32C10.6 29.28 11.2133 26.84 12.44 24.68C13.6933 22.52 15.4133 20.84 17.6 19.64C19.7867 18.4133 22.2533 17.8 25 17.8C27.3733 17.8 29.5733 18.32 31.6 19.36Z" fill="white"/>
        <path d="M63.28 50C64.0267 50 64.6267 50.2267 65.08 50.68C65.5333 51.1333 65.76 51.72 65.76 52.44V75.56C65.76 76.2533 65.52 76.84 65.04 77.32C64.56 77.7733 63.9467 78 63.2 78C62.5333 78 61.96 77.7733 61.48 77.32C61 76.84 60.76 76.2533 60.76 75.56V66.24H48V75.56C48 76.2533 47.7467 76.84 47.24 77.32C46.7333 77.7733 46.1467 78 45.48 78C44.76 78 44.16 77.7733 43.68 77.32C43.2267 76.84 43 76.2533 43 75.56V52.44C43 51.7467 43.24 51.1733 43.72 50.72C44.2 50.24 44.8133 50 45.56 50C46.2267 50 46.8 50.24 47.28 50.72C47.76 51.1733 48 51.7467 48 52.44V61.64H60.76V52.44C60.76 51.7467 61.0133 51.1733 61.52 50.72C62.0267 50.24 62.6133 50 63.28 50Z" fill="white"/>
    </mask>
    <g mask="url(#mask0)">
        <circle cx="5.5" cy="82.5" r="30.5" fill="#DAA3A3"/>
        <circle cx="76.5" cy="15.5" r="30.5" fill="#EFDA91"/>
    </g>
</svg>
